<svg width="394" height="57" viewBox="0 0 394 57" fill="none" xmlns="http://www.w3.org/2000/svg">
<path d="M0.842071 29.195V23.53L28.7821 11.76V19.24L11.9521 26.445L28.7821 33.43V40.965L0.842071 29.195ZM66.7329 6.865C66.7329 7.56167 66.5863 8.22167 66.2929 8.845C66.0363 9.43167 65.6696 9.945 65.1929 10.385C64.7163 10.825 64.1663 11.1733 63.5429 11.43C62.9196 11.6867 62.2596 11.815 61.5629 11.815C60.0963 11.815 58.8679 11.3383 57.8779 10.385C56.8879 9.395 56.3929 8.22167 56.3929 6.865C56.3929 6.205 56.5213 5.58167 56.7779 4.995C57.0346 4.37167 57.4013 3.84 57.8779 3.4C58.3546 2.96 58.9046 2.61166 59.5279 2.355C60.1513 2.06166 60.8296 1.915 61.5629 1.915C62.2596 1.915 62.9196 2.04333 63.5429 2.3C64.1663 2.55667 64.7163 2.905 65.1929 3.345C65.6696 3.785 66.0363 4.31666 66.2929 4.94C66.5863 5.52666 66.7329 6.16833 66.7329 6.865ZM56.9979 43V15.61H66.0729V43H56.9979ZM53.6429 8.075C53.3129 7.965 52.9279 7.87333 52.4879 7.8C52.0479 7.72667 51.6079 7.69 51.1679 7.69C50.3246 7.69 49.6463 7.83667 49.1329 8.13C48.6196 8.42333 48.2163 8.82666 47.9229 9.34C47.6296 9.81666 47.4279 10.3667 47.3179 10.99C47.2079 11.6133 47.1529 12.2367 47.1529 12.86V15.61H53.2579V22.375H47.1529V43H38.1329V22.375H33.1279V15.61H38.1329V12.97C38.1329 11.2833 38.3163 9.68833 38.6829 8.185C39.0496 6.645 39.6729 5.30667 40.5529 4.17C41.4696 2.99666 42.6796 2.08 44.1829 1.42C45.7229 0.723331 47.6296 0.374998 49.9029 0.374998C50.6729 0.374998 51.4246 0.429998 52.1579 0.539999C52.9279 0.613332 53.6246 0.741664 54.2479 0.924998L53.6429 8.075ZM102.65 43H91.4851L82.5201 29.855H82.3551V43H73.2801V1.42H82.3551V26.72H82.5201L91.2651 15.61H102.21L91.6501 27.985L102.65 43ZM123.7 22.98C123.297 22.87 122.893 22.7967 122.49 22.76C122.123 22.7233 121.757 22.705 121.39 22.705C120.18 22.705 119.153 22.925 118.31 23.365C117.503 23.805 116.843 24.3367 116.33 24.96C115.853 25.5833 115.505 26.2617 115.285 26.995C115.065 27.7283 114.955 28.37 114.955 28.92V43H105.935V15.61H114.625V19.57H114.735C115.432 18.1767 116.422 17.04 117.705 16.16C118.988 15.28 120.473 14.84 122.16 14.84C122.527 14.84 122.875 14.8583 123.205 14.895C123.572 14.9317 123.865 14.9867 124.085 15.06L123.7 22.98ZM137.532 6.865C137.532 7.56167 137.385 8.22167 137.092 8.845C136.835 9.43167 136.468 9.945 135.992 10.385C135.552 10.825 135.002 11.1733 134.342 11.43C133.718 11.6867 133.058 11.815 132.362 11.815C130.895 11.815 129.667 11.3383 128.677 10.385C127.687 9.395 127.192 8.22167 127.192 6.865C127.192 6.205 127.32 5.58167 127.577 4.995C127.833 4.37167 128.2 3.84 128.677 3.4C129.153 2.96 129.703 2.61166 130.327 2.355C130.95 2.06166 131.628 1.915 132.362 1.915C133.058 1.915 133.718 2.04333 134.342 2.3C135.002 2.55667 135.552 2.905 135.992 3.345C136.468 3.785 136.835 4.31666 137.092 4.94C137.385 5.52666 137.532 6.16833 137.532 6.865ZM127.852 43V15.61H136.872V43H127.852ZM162.001 43V28.04C162.001 27.27 161.928 26.5367 161.781 25.84C161.671 25.1433 161.469 24.5383 161.176 24.025C160.883 23.475 160.461 23.0533 159.911 22.76C159.398 22.43 158.738 22.265 157.931 22.265C157.124 22.265 156.409 22.43 155.786 22.76C155.199 23.0533 154.704 23.475 154.301 24.025C153.898 24.575 153.586 25.2167 153.366 25.95C153.183 26.6467 153.091 27.38 153.091 28.15V43H144.016V15.61H152.761V19.405H152.871C153.201 18.8183 153.623 18.25 154.136 17.7C154.686 17.1133 155.309 16.6183 156.006 16.215C156.739 15.8117 157.528 15.4817 158.371 15.225C159.214 14.9683 160.113 14.84 161.066 14.84C162.899 14.84 164.458 15.17 165.741 15.83C167.024 16.49 168.051 17.3517 168.821 18.415C169.628 19.4417 170.196 20.6333 170.526 21.99C170.893 23.3467 171.076 24.7033 171.076 26.06V43H162.001ZM195.948 43V28.15C195.948 27.38 195.893 26.6467 195.783 25.95C195.673 25.2533 195.453 24.6483 195.123 24.135C194.829 23.585 194.426 23.1633 193.913 22.87C193.399 22.54 192.739 22.375 191.933 22.375C190.356 22.375 189.146 22.9433 188.303 24.08C187.459 25.18 187.038 26.555 187.038 28.205V43H178.018V1.42H187.038V19.075H187.148C187.771 17.975 188.761 17.0033 190.118 16.16C191.474 15.28 193.106 14.84 195.013 14.84C196.883 14.84 198.441 15.17 199.688 15.83C200.971 16.49 201.998 17.3517 202.768 18.415C203.574 19.4417 204.143 20.6333 204.473 21.99C204.839 23.3467 205.023 24.7033 205.023 26.06V43H195.948ZM228.023 31.065H226.868C225.878 31.065 224.87 31.12 223.843 31.23C222.853 31.3033 221.955 31.4683 221.148 31.725C220.378 31.9817 219.736 32.3667 219.223 32.88C218.71 33.3567 218.453 33.9983 218.453 34.805C218.453 35.3183 218.563 35.7583 218.783 36.125C219.04 36.4917 219.351 36.785 219.718 37.005C220.085 37.225 220.506 37.39 220.983 37.5C221.46 37.5733 221.918 37.61 222.358 37.61C224.191 37.61 225.585 37.115 226.538 36.125C227.528 35.0983 228.023 33.7233 228.023 32V31.065ZM211.468 19.35C213.081 17.81 214.951 16.655 217.078 15.885C219.241 15.115 221.441 14.73 223.678 14.73C225.988 14.73 227.931 15.0233 229.508 15.61C231.121 16.16 232.423 17.04 233.413 18.25C234.403 19.4233 235.118 20.9267 235.558 22.76C236.035 24.5567 236.273 26.7017 236.273 29.195V43H228.023V40.085H227.858C227.161 41.2217 226.098 42.1017 224.668 42.725C223.275 43.3483 221.753 43.66 220.103 43.66C219.003 43.66 217.866 43.5133 216.693 43.22C215.52 42.9267 214.438 42.45 213.448 41.79C212.495 41.13 211.706 40.25 211.083 39.15C210.46 38.05 210.148 36.6933 210.148 35.08C210.148 33.1 210.68 31.505 211.743 30.295C212.843 29.085 214.236 28.15 215.923 27.49C217.646 26.83 219.553 26.39 221.643 26.17C223.733 25.95 225.768 25.84 227.748 25.84V25.4C227.748 24.0433 227.271 23.0533 226.318 22.43C225.365 21.77 224.191 21.44 222.798 21.44C221.515 21.44 220.268 21.715 219.058 22.265C217.885 22.815 216.876 23.475 216.033 24.245L211.468 19.35ZM258.46 47.125C257.91 48.555 257.287 49.82 256.59 50.92C255.93 52.0567 255.124 53.01 254.17 53.78C253.254 54.5867 252.154 55.1917 250.87 55.595C249.624 55.9983 248.139 56.2 246.415 56.2C245.572 56.2 244.692 56.145 243.775 56.035C242.895 55.925 242.125 55.7783 241.465 55.595L242.455 48.005C242.895 48.1517 243.372 48.2617 243.885 48.335C244.435 48.445 244.93 48.5 245.37 48.5C246.764 48.5 247.772 48.17 248.395 47.51C249.019 46.8867 249.55 45.9883 249.99 44.815L250.87 42.56L239.43 15.61H249.44L255.545 33.21H255.71L261.155 15.61H270.725L258.46 47.125ZM290.381 31.065H289.226C288.236 31.065 287.228 31.12 286.201 31.23C285.211 31.3033 284.313 31.4683 283.506 31.725C282.736 31.9817 282.095 32.3667 281.581 32.88C281.068 33.3567 280.811 33.9983 280.811 34.805C280.811 35.3183 280.921 35.7583 281.141 36.125C281.398 36.4917 281.71 36.785 282.076 37.005C282.443 37.225 282.865 37.39 283.341 37.5C283.818 37.5733 284.276 37.61 284.716 37.61C286.55 37.61 287.943 37.115 288.896 36.125C289.886 35.0983 290.381 33.7233 290.381 32V31.065ZM273.826 19.35C275.44 17.81 277.31 16.655 279.436 15.885C281.6 15.115 283.8 14.73 286.036 14.73C288.346 14.73 290.29 15.0233 291.866 15.61C293.48 16.16 294.781 17.04 295.771 18.25C296.761 19.4233 297.476 20.9267 297.916 22.76C298.393 24.5567 298.631 26.7017 298.631 29.195V43H290.381V40.085H290.216C289.52 41.2217 288.456 42.1017 287.026 42.725C285.633 43.3483 284.111 43.66 282.461 43.66C281.361 43.66 280.225 43.5133 279.051 43.22C277.878 42.9267 276.796 42.45 275.806 41.79C274.853 41.13 274.065 40.25 273.441 39.15C272.818 38.05 272.506 36.6933 272.506 35.08C272.506 33.1 273.038 31.505 274.101 30.295C275.201 29.085 276.595 28.15 278.281 27.49C280.005 26.83 281.911 26.39 284.001 26.17C286.091 25.95 288.126 25.84 290.106 25.84V25.4C290.106 24.0433 289.63 23.0533 288.676 22.43C287.723 21.77 286.55 21.44 285.156 21.44C283.873 21.44 282.626 21.715 281.416 22.265C280.243 22.815 279.235 23.475 278.391 24.245L273.826 19.35ZM314.617 22.375V32.825C314.617 34.1083 314.855 35.08 315.332 35.74C315.845 36.3633 316.743 36.675 318.027 36.675C318.467 36.675 318.925 36.6383 319.402 36.565C319.915 36.4917 320.337 36.3817 320.667 36.235L320.777 42.835C320.153 43.055 319.365 43.2383 318.412 43.385C317.458 43.5683 316.505 43.66 315.552 43.66C313.718 43.66 312.178 43.44 310.932 43C309.685 42.5233 308.677 41.8633 307.907 41.02C307.173 40.14 306.642 39.1133 306.312 37.94C305.982 36.73 305.817 35.3917 305.817 33.925V22.375H301.417V15.61H305.762V8.405H314.617V15.61H321.052V22.375H314.617ZM325.401 43V15.61H334.421V43H325.401ZM343.875 45.86L337.66 43.825L354.655 1.09L360.87 3.235L343.875 45.86ZM365.217 40.965V33.43L382.047 26.445L365.217 19.24V11.76L393.157 23.53V29.195L365.217 40.965Z" fill="black"/>
</svg>
